# xmcd CD database file
#
# Track frame offsets:
#	150
#	14493
#	28618
#	44724
#	58213
#	71596
#	85100
#	99717
#	114310
#	127366
#	141120
#	153387
#	167552
#	181039
#	194566
#	208047
#
# Disc length: 2938 seconds
#
# Revision: 0
# Processed by: cddbd v1.4PL0 Copyright (c) Steve Scherf et al.
# Submitted via: CDex 1.51
#
DISCID=ea0b7810
DTITLE=John Lee Hooker - Who's Been Jivin' You
DYEAR=1900
DGENRE=Blues
TTITLE0=Stomp Boogie
TTITLE1=Who's Been Jivin' You
TTITLE2=Black Man's Blues
TTITLE3=Poor Joe
TTITLE4=Nightmare Blues
TTITLE5=Late Last Night
TTITLE6=Wandering Blues
TTITLE7=Don't Go Baby
TTITLE8=Devil's Jump
TTITLE9=I'm Gonna Kill That Woman
TTITLE10=Moaning Blues
TTITLE11=The Numbers
TTITLE12=Heart Trouble Blues
TTITLE13=Slim's Stomp
TTITLE14=Thinking Blues
TTITLE15=Don't You Remember Me
EXTD=
EXTT0=
EXTT1=
EXTT2=
EXTT3=
EXTT4=
EXTT5=
EXTT6=
EXTT7=
EXTT8=
EXTT9=
EXTT10=
EXTT11=
EXTT12=
EXTT13=
EXTT14=
EXTT15=
PLAYORDER=
